<svg viewBox="0 0 1058 785" fill="none" xmlns="http://www.w3.org/2000/svg">
<rect width="1058" height="785" fill="#E5E5E5"/>
<g id="undraw_Ride_a_bicycle_2yok 1">
<g id="Vector">
<path d="M308.548 147.879C305.333 151.674 304.095 157.011 302.711 162.027C291.564 202.457 264.097 234.976 232.817 258.205C219.57 268.044 203.443 281.239 206.341 298.88C207.902 308.354 214.748 315.328 219.834 323.044C230.506 339.201 233.967 361.162 228.881 380.504C223.096 402.511 206.928 423.045 211.932 445.297C215.018 458.995 225.496 468.742 235.568 477.121C251.283 490.182 267.498 502.419 284.214 513.829C295.419 521.477 307.339 528.919 320.398 529.889C331.897 530.745 343.16 526.493 354.078 522.299C363.617 518.629 373.396 514.811 381.099 507.46C386.127 502.66 390.134 496.468 395.719 492.541C408.836 483.319 425.685 489.163 440.726 493.112C476.219 502.381 514.205 498.996 547.978 483.558C599.785 459.874 639.273 410.135 689.948 383.449C711.736 371.972 735.437 364.849 755.612 350.067C766.978 341.651 776.746 331.368 784.475 319.682C799.728 296.791 807.976 267.604 805.594 239.034C803.213 210.464 789.866 182.933 768.905 166.804C746.466 149.54 718.125 146.315 692.594 135.951C666.23 125.245 642.775 106.845 616.663 95.356C595.534 86.0857 572.54 81.5349 549.367 82.0375C526.195 82.5402 503.432 88.0836 482.748 98.261C454.331 112.244 425.526 144.866 393.876 147.343C371.326 149.055 326.159 127.094 308.548 147.879Z" fill="#FDFFAB"/>
<path d="M308.548 147.879C305.333 151.674 304.095 157.011 302.711 162.027C291.564 202.457 264.097 234.976 232.817 258.205C219.57 268.044 203.443 281.239 206.341 298.88C207.902 308.354 214.748 315.328 219.834 323.044C230.506 339.201 233.967 361.162 228.881 380.504C223.096 402.511 206.928 423.045 211.932 445.297C215.018 458.995 225.496 468.742 235.568 477.121C251.283 490.182 267.498 502.419 284.214 513.829C295.419 521.477 307.339 528.919 320.398 529.889C331.897 530.745 343.16 526.493 354.078 522.299C363.617 518.629 373.396 514.811 381.099 507.46C386.127 502.66 390.134 496.468 395.719 492.541C408.836 483.319 425.685 489.163 440.726 493.112C476.219 502.381 514.205 498.996 547.978 483.558C599.785 459.874 639.273 410.135 689.948 383.449C711.736 371.972 735.437 364.849 755.612 350.067C766.978 341.651 776.746 331.368 784.475 319.682C799.728 296.791 807.976 267.604 805.594 239.034C803.213 210.464 789.866 182.933 768.905 166.804C746.466 149.54 718.125 146.315 692.594 135.951C666.23 125.245 642.775 106.845 616.663 95.356C595.534 86.0857 572.54 81.5349 549.367 82.0375C526.195 82.5402 503.432 88.0836 482.748 98.261C454.331 112.244 425.526 144.866 393.876 147.343C371.326 149.055 326.159 127.094 308.548 147.879Z" fill="url(#paint0_linear)"/>
</g>
<g id="Backwheel">
<path id="Vector_2" d="M354.848 481.376L351.17 425.48L351.094 425.36L347.386 426.616L330.326 475.041L303.194 456.327L346.412 425.845L346.453 425.725L346.7 425.64L349.486 423.671L304.173 398.953L293.074 410.824L294.834 421.953L346.94 422.877V424.019L293.86 423.094L291.854 410.459L307.048 394.216L329.781 368.42L330.185 369.487L334.996 364.35L352.865 367.466V366.776L354.039 366.81V367.672L380.649 372.306L355.84 420.595L352.22 423.146V423.431V423.751L409.595 404.301L402.784 456.356L354.092 426.182L352.379 425.246L381.089 470.264L354.848 481.376ZM352.502 427.534L355.934 479.687L379.429 469.768L352.502 427.534ZM305.229 456.316L329.745 473.226L345.785 427.717L305.229 456.316ZM353.522 424.55L354.749 425.217L401.886 454.438L408.222 406.001L353.522 424.55ZM349.357 420.44L350.83 422.752L351.088 422.569L352.848 368.619L335.401 365.583L330.614 370.719L349.357 420.44ZM305.112 398.148L349.017 422.118L348.254 420.903L329.728 371.667L307.91 394.992L305.112 398.148ZM354.039 368.819L352.279 421.736L354.93 419.864L378.93 373.168L354.039 368.819Z" fill="#535461"/>
<path id="Vector_3" d="M419.198 408.872C416.845 398.702 412.082 389.208 405.289 381.147C402.767 378.151 399.986 375.371 396.976 372.837C385.403 363.117 370.841 357.41 355.574 356.612C340.307 355.814 325.2 359.97 312.623 368.428C300.047 376.886 290.713 389.167 286.087 403.343C281.461 417.519 281.804 432.789 287.063 446.755C292.321 460.721 302.198 472.593 315.142 480.508C328.086 488.424 343.366 491.933 358.582 490.487C373.799 489.041 388.091 482.72 399.216 472.517C410.341 462.315 417.668 448.807 420.049 434.115C420.603 430.656 420.881 427.16 420.882 423.659C420.886 418.685 420.321 413.725 419.198 408.872ZM351.622 474.134C340.926 474.123 330.493 470.907 321.742 464.925C312.99 458.942 306.345 450.483 302.71 440.697C299.075 430.911 298.626 420.273 301.425 410.23C304.223 400.187 310.133 391.226 318.351 384.566C326.569 377.906 336.696 373.87 347.355 373.006C358.014 372.142 368.688 374.493 377.925 379.739C387.162 384.985 394.515 392.871 398.982 402.326C403.45 411.78 404.816 422.343 402.895 432.58C400.695 444.247 394.36 454.794 384.991 462.387C375.623 469.979 363.815 474.136 351.622 474.134V474.134Z" fill="#535461"/>
</g>
<g id="Forwardwheel">
<g id="Group 1">
<path id="Vector_4" d="M603.044 480.03L599.372 424.157L599.295 424.037L595.588 425.293L578.522 473.695L551.39 454.976L594.62 424.494L594.661 424.374L594.907 424.288L597.694 422.319L552.381 397.601L541.276 409.472L543.036 420.601L595.13 421.503V422.644L542.05 421.72L540.055 409.101L555.244 392.864L577.959 367.085L578.364 368.152L583.174 363.016L601.091 366.138V365.447L602.264 365.481V366.343L628.874 370.977L604.042 419.289L600.422 421.84V422.125V422.445L657.802 402.995L650.991 455.05L602.299 424.876L600.586 423.94L629.297 468.964L603.044 480.03ZM600.698 426.189L604.129 478.341L627.625 468.422L600.698 426.189ZM553.431 454.976L577.947 471.886L593.986 426.377L553.431 454.976ZM601.724 423.209L602.95 423.877L650.088 453.098L656.424 404.661L601.724 423.209ZM597.559 419.1L599.031 421.412L599.29 421.229L601.05 367.279L583.603 364.231L578.815 369.368L597.559 419.1ZM553.331 396.814L597.236 420.784L596.474 419.568L577.947 370.332L556.124 393.663L553.331 396.814ZM602.24 367.485L600.481 420.384L603.132 418.512L627.132 371.816L602.24 367.485Z" fill="#535461"/>
</g>
<path id="Vector_5" d="M599.501 355.374C593.274 355.367 587.076 356.181 581.074 357.794C577.979 358.624 574.948 359.667 572.004 360.916C556.323 367.529 543.72 379.565 536.633 394.695C529.547 409.826 528.48 426.976 533.64 442.827C538.8 458.678 549.82 472.105 564.567 480.509C579.314 488.913 596.742 491.697 613.478 488.324C630.213 484.95 645.068 475.658 655.169 462.245C665.269 448.832 669.897 432.251 668.158 415.71C666.418 399.169 658.434 383.844 645.751 372.699C633.068 361.554 616.586 355.381 599.495 355.374H599.501ZM599.266 472.993C587.368 472.989 575.83 469.025 566.568 461.76C557.305 454.495 550.876 444.366 548.348 433.056C545.819 421.746 547.344 409.934 552.669 399.583C557.993 389.232 566.797 380.965 577.619 376.154C580.371 374.928 583.23 373.94 586.16 373.203C593.325 371.394 600.803 371.09 608.097 372.311C615.392 373.533 622.335 376.251 628.466 380.287C634.596 384.322 639.773 389.581 643.651 395.714C647.53 401.847 650.021 408.713 650.96 415.855C651.898 422.998 651.262 430.253 649.094 437.138C646.926 444.023 643.276 450.38 638.386 455.785C633.496 461.191 627.478 465.521 620.734 468.488C613.99 471.455 606.674 472.991 599.272 472.993H599.266Z" fill="#535461"/>
<path id="Vector_6" d="M599.266 429.601C603.417 429.601 606.781 426.328 606.781 422.291C606.781 418.253 603.417 414.98 599.266 414.98C595.116 414.98 591.751 418.253 591.751 422.291C591.751 426.328 595.116 429.601 599.266 429.601Z" fill="#535461"/>
</g>
<g id="ManOnBike">
<path id="Vector_7" d="M430.687 389.219L405.633 365.167L397.804 372.885L422.858 396.938L430.687 389.219Z" fill="#535461"/>
<path id="Vector_8" d="M411.61 353.656C411.61 353.656 426.153 346.191 431.773 341.386C435.156 338.506 438.794 335.922 442.644 333.664L460.888 322.86L499.021 320.006L500.781 326.284C500.781 326.284 503.714 335.416 474.381 343.406C445.049 351.396 430.383 363.952 430.383 363.952C430.383 363.952 411.61 370.207 411.61 353.656Z" fill="#DB8B8B"/>
<path id="Vector_9" opacity="0.1" d="M431.937 362.713C430.899 363.484 430.383 363.929 430.383 363.929C430.383 363.929 411.61 370.207 411.61 353.656C411.61 353.656 412.519 353.188 413.956 352.406C415.408 354.706 417.443 356.606 419.864 357.924C422.286 359.242 425.015 359.934 427.79 359.934H429.778L431.937 362.713Z" fill="black"/>
<path id="Vector_10" opacity="0.05" d="M500.229 329.435C498.598 332.796 492.972 338.321 474.381 343.383C450.558 349.872 436.407 359.363 431.937 362.713C430.899 363.484 430.383 363.929 430.383 363.929C430.383 363.929 411.61 370.207 411.61 353.656C411.61 353.656 412.519 353.188 413.956 352.406C418.315 350.083 427.543 344.987 431.755 341.363C435.138 338.482 438.776 335.898 442.626 333.641L460.871 322.837L467.664 322.329L499.003 319.984L500.763 326.262C500.763 326.262 501.174 327.489 500.229 329.435Z" fill="black"/>
<path id="Vector_11" d="M411.903 349.946L396.357 359.934L441.881 397.03C441.881 397.03 448.569 393.035 445.049 388.47C445.049 388.47 433.316 378.768 432.729 365.07L429.209 360.505H427.221C423.858 360.505 420.578 359.489 417.834 357.598C415.09 355.707 413.018 353.033 411.903 349.946V349.946Z" fill="#FCF8F8"/>
<path id="Vector_12" opacity="0.1" d="M500.229 329.435C490.843 325.023 467.928 324.549 467.928 324.549L467.682 322.329L499.021 319.984L500.781 326.262C500.781 326.262 501.174 327.489 500.229 329.435Z" fill="black"/>
<path id="Vector_13" d="M467.928 323.408C467.928 323.408 495.501 323.979 502.541 329.686L499.021 260.629H460.888L467.928 323.408Z" fill="#ABB1D1"/>
<path id="Vector_14" opacity="0.05" d="M467.928 323.123C467.928 323.123 495.501 323.693 502.541 329.4L499.021 260.344H460.888L467.928 323.123Z" fill="black"/>
<path id="Vector_15" d="M490.08 281.152C490.08 281.152 559.1 278.869 560.508 287.55C561.916 296.23 491.488 292.572 491.488 292.572C491.488 292.572 485.856 287.087 490.08 281.152Z" fill="#535461"/>
<path id="Vector_16" opacity="0.05" d="M490.08 281.152C490.08 281.152 559.1 278.869 560.508 287.55C561.916 296.23 491.488 292.572 491.488 292.572C491.488 292.572 485.856 287.087 490.08 281.152Z" fill="black"/>
<g id="Vector_17">
<path d="M434.208 315.869H421.999V419.1H434.208V315.869Z" fill="#CDFF63"/>
<path d="M434.208 315.869H421.999V419.1H434.208V315.869Z" fill="url(#paint1_linear)"/>
</g>
<path id="Vector_18" opacity="0.1" d="M434.208 315.863V323.813C430.148 324.327 425.994 324.652 421.999 324.778V315.863H434.208Z" fill="black"/>
<path id="Vector_19" d="M433.292 307.308C431.579 307.179 429.875 306.956 428.188 306.64C421.571 305.407 404.887 302.822 400.399 307.211C394.767 312.69 396.644 322.284 411.668 323.653C426.693 325.023 452.517 321.37 457.685 315.886C457.685 315.863 448.34 308.432 433.292 307.308Z" fill="#535461"/>
<g id="Vector_20">
<path d="M430.922 344.188L559.106 305.362L563.33 314.956L431.861 358.804L430.922 344.188Z" fill="#CDFF63"/>
<path d="M430.922 344.188L559.106 305.362L563.33 314.956L431.861 358.804L430.922 344.188Z" fill="url(#paint2_linear)"/>
</g>
<g id="Vector_21">
<path d="M468.955 405.397L561.452 316.782L566.615 324.087L478.341 413.616L468.955 405.397Z" fill="#CDFF63"/>
<path d="M468.955 405.397L561.452 316.782L566.615 324.087L478.341 413.616L468.955 405.397Z" fill="url(#paint3_linear)"/>
</g>
<path id="Vector_22" opacity="0.1" d="M587.077 375.263C584.146 376.001 581.288 376.988 578.536 378.214L572.927 362.97C575.871 361.722 578.901 360.679 581.997 359.848L587.077 375.263Z" fill="black"/>
<g id="Vector_23">
<path d="M602.77 420.013L596.2 423.666L550.359 299.061L548.305 293.485L559.106 287.544L561.81 295.751L602.77 420.013Z" fill="#CDFF63"/>
<path d="M602.77 420.013L596.2 423.666L550.359 299.061L548.305 293.485L559.106 287.544L561.81 295.751L602.77 420.013Z" fill="url(#paint4_linear)"/>
</g>
<path id="Vector_24" opacity="0.1" d="M561.81 295.751L550.359 299.061L548.305 293.485L559.106 287.544L561.81 295.751Z" fill="black"/>
<path id="Vector_25" d="M491.958 305.362L556.284 283.891C556.284 283.891 567.553 285.261 563.324 294.398L498.534 313.124C498.534 313.124 488.678 314.037 491.958 305.362Z" fill="#535461"/>
<path id="Vector_26" opacity="0.1" d="M419.418 424.351C419.417 427.852 419.139 431.347 418.585 434.806C412.953 434.413 407.134 433.842 401.431 433.271C402.698 426.485 402.54 419.519 400.968 412.794C406.523 411.652 412.196 410.562 417.734 409.575C418.856 414.424 419.421 419.38 419.418 424.351V424.351Z" fill="black"/>
<path id="Vector_27" opacity="0.1" d="M434.208 406.955V419.094H421.999V408.822C426.223 408.108 430.33 407.475 434.208 406.955Z" fill="black"/>
<g id="Vector_28">
<path d="M355.326 424.14C355.326 424.14 453.931 399.028 461.909 408.61C469.888 418.193 478.341 430.988 453.479 435.554C428.617 440.12 353.467 427.786 353.467 427.786L355.326 424.14Z" fill="#CDFF63"/>
<path d="M355.326 424.14C355.326 424.14 453.931 399.028 461.909 408.61C469.888 418.193 478.341 430.988 453.479 435.554C428.617 440.12 353.467 427.786 353.467 427.786L355.326 424.14Z" fill="url(#paint5_linear)"/>
</g>
<path id="Vector_29" opacity="0.1" d="M403.825 381.838L391.294 392.996C389.075 390.224 386.566 387.684 383.808 385.416L395.506 373.528C398.518 376.062 401.301 378.842 403.825 381.838V381.838Z" fill="black"/>
<g id="Vector_30">
<path d="M352.041 419.1L425.754 344.188L428.106 361.543L355.796 425.949L352.041 419.1Z" fill="#CDFF63"/>
<path d="M352.041 419.1L425.754 344.188L428.106 361.543L355.796 425.949L352.041 419.1Z" fill="url(#paint6_linear)"/>
</g>
<path id="Vector_31" opacity="0.1" d="M351.102 431.433C355.253 431.433 358.617 428.16 358.617 424.123C358.617 420.085 355.253 416.812 351.102 416.812C346.952 416.812 343.587 420.085 343.587 424.123C343.587 428.16 346.952 431.433 351.102 431.433Z" fill="black"/>
<path id="Vector_32" d="M350.158 431.433C354.308 431.433 357.673 428.16 357.673 424.123C357.673 420.085 354.308 416.812 350.158 416.812C346.007 416.812 342.643 420.085 342.643 424.123C342.643 428.16 346.007 431.433 350.158 431.433Z" fill="#535461"/>
<path id="Vector_33" opacity="0.1" d="M599.72 430.749C603.87 430.749 607.235 427.475 607.235 423.438C607.235 419.4 603.87 416.127 599.72 416.127C595.569 416.127 592.205 419.4 592.205 423.438C592.205 427.475 595.569 430.749 599.72 430.749Z" fill="black"/>
<path id="Vector_34" opacity="0.1" d="M466.602 431.433C474.9 431.433 481.627 424.89 481.627 416.817C481.627 408.745 474.9 402.201 466.602 402.201C458.305 402.201 451.578 408.745 451.578 416.817C451.578 424.89 458.305 431.433 466.602 431.433Z" fill="black"/>
<path id="Vector_35" d="M467.547 431.433C475.845 431.433 482.571 424.89 482.571 416.817C482.571 408.745 475.845 402.201 467.547 402.201C459.249 402.201 452.523 408.745 452.523 416.817C452.523 424.89 459.249 431.433 467.547 431.433Z" fill="#535461"/>
<path id="Vector_36" d="M463.536 415.719L463.531 415.723C461.766 417.006 461.406 419.438 462.725 421.155L474.65 436.667C475.969 438.384 478.469 438.735 480.233 437.451L480.238 437.447C482.002 436.164 482.363 433.732 481.044 432.015L469.119 416.503C467.8 414.787 465.3 414.436 463.536 415.719Z" fill="#6C63FF"/>
<path id="Vector_37" d="M535.393 213.83L533.997 231.014C533.836 233.191 533.866 235.377 534.085 237.549C534.267 239.472 534.085 242.84 532.149 247.976C529.663 254.538 528.379 261.472 528.353 268.465V288.023L514.86 285.741C514.86 285.741 515.447 258.346 513.1 253.78C510.754 249.215 514.86 208.694 514.86 208.694L535.393 213.83Z" fill="#DB8B8B"/>
<path id="Vector_38" opacity="0.05" d="M534.701 222.345L533.997 231.014C533.838 233.189 533.87 235.374 534.091 237.543C534.273 239.467 534.091 242.834 532.155 247.976C529.669 254.538 528.385 261.472 528.359 268.465V288.023L514.866 285.741C514.866 285.741 515.453 258.346 513.106 253.78C511.446 250.544 513.018 229.274 514.08 217.135C514.52 212.141 514.866 208.694 514.866 208.694L535.399 213.83L534.701 222.345Z" fill="black"/>
<path id="Vector_39" d="M468.707 342.908L463.632 370.987C462.992 374.736 462.011 378.422 460.699 382.002C457.725 389.912 459.625 401.001 461.068 407.051C461.708 409.722 462.242 411.411 462.242 411.411L446.989 419.401L442.296 415.977V413.694L441.709 362.9C438.189 354.91 439.362 342.925 441.709 338.359C442.376 336.859 442.845 335.283 443.105 333.668C444.278 327.55 444.642 318.955 444.642 318.955C444.642 318.955 454.029 303.546 465.175 313.818C469.282 317.602 470.842 322.55 471.171 327.287C471.745 335.397 468.707 342.908 468.707 342.908Z" fill="#DB8B8B"/>
<path id="Vector_40" opacity="0.1" d="M470.991 329.458C462.854 334.16 448.698 335.49 442.925 335.838C444.098 329.72 444.462 321.125 444.462 321.125C444.462 321.125 453.849 305.716 464.995 315.989C469.102 319.772 470.662 324.721 470.991 329.458Z" fill="black"/>
<path id="Vector_41" d="M490.808 315.418C484.569 318.65 478.674 322.473 473.208 326.832C463.822 334.252 440.356 334.822 440.356 334.822V326.262C440.942 315.989 430.969 304.574 417.476 272.614C408.858 252.205 411.246 240.654 414.097 234.947C415.716 231.722 417.476 230.381 417.476 230.381L490.808 244.078L493.43 251.726L499.021 268.048C499.021 268.048 478.488 269.19 474.968 270.902C471.448 272.614 473.795 288.023 473.795 288.023C470.275 304.004 490.808 315.418 490.808 315.418Z" fill="#ABB1D1"/>
<path id="Vector_42" opacity="0.1" d="M535.393 213.83L534.701 222.345C524.493 225.199 517.207 216.113 517.207 216.113C516.142 216.391 515.096 216.732 514.074 217.135C514.514 212.141 514.86 208.694 514.86 208.694L535.393 213.83Z" fill="black"/>
<path id="Vector_43" opacity="0.1" d="M493.43 251.726C493.154 254.391 493.154 256.063 493.154 256.063C493.154 256.063 479.661 266.907 456.782 250.356C433.902 233.805 413.37 238.371 413.37 238.371C413.37 238.371 413.61 237.047 414.097 234.947C415.716 231.722 417.476 230.381 417.476 230.381L490.808 244.078L493.43 251.726Z" fill="black"/>
<path id="Vector_44" d="M543.301 191.544C541.77 203.158 541.26 217.797 541.26 217.797C527.767 228.07 517.207 214.943 517.207 214.943C504.465 218.27 498.475 229.12 495.653 238.588C494.142 243.709 493.302 248.996 493.154 254.323C493.154 254.323 489.587 257.176 483.017 257.747C476.804 258.255 467.899 256.68 456.782 248.615C433.902 232.065 413.37 236.63 413.37 236.63C413.37 236.63 417.476 213.802 426.863 206.953C436.249 200.104 443.289 191.544 455.022 165.291C466.755 139.038 490.808 145.315 490.808 145.315C490.808 145.315 491.981 140.179 513.687 145.315C518.974 146.663 523.868 149.185 527.984 152.683C539.594 162.18 545.225 176.91 543.301 191.544Z" fill="white"/>
<path id="Vector_45" d="M521.531 158.185C521.501 158.944 521.437 159.789 521.331 160.731C520.158 171.003 518.985 169.862 506.078 172.145C498.053 173.566 493.882 167.043 491.875 161.906C491.149 160.046 490.601 158.124 490.239 156.165L518.398 151.599C518.398 151.599 521.771 150.68 521.531 158.185Z" fill="#DB8B8B"/>
<path id="Vector_46" opacity="0.05" d="M495.653 238.616C494.142 243.738 493.302 249.025 493.154 254.351C493.154 254.351 489.587 257.205 483.017 257.775C482.832 257.412 482.69 257.029 482.595 256.634C481.421 251.497 472.621 242.366 472.621 242.366C466.755 237.23 465.582 228.098 465.582 228.098L455.902 200.418L452.675 197.85C452.675 197.85 466.168 187.577 477.901 196.138C489.634 204.699 486.114 222.962 486.114 222.962L488.461 229.239C490.896 231.237 493.371 234.758 495.653 238.616Z" fill="black"/>
<path id="Vector_47" d="M454.435 197.279L467.342 227.527C467.342 227.527 468.515 236.659 474.381 241.795C474.381 241.795 483.181 250.927 484.355 256.063C485.528 261.2 501.954 274.897 501.954 274.897C501.954 274.897 517.207 288.594 518.38 293.731C518.38 293.731 532.46 297.726 530.7 305.716C530.7 305.716 541.26 295.443 530.7 285.741C520.14 276.038 506.061 256.063 506.061 256.063C506.061 256.063 497.848 234.947 490.221 228.669L487.874 222.391C487.874 222.391 491.394 204.128 479.661 195.567C467.928 187.006 454.435 197.279 454.435 197.279Z" fill="#DB8B8B"/>
<path id="Vector_48" opacity="0.1" d="M462.062 413.581L446.809 421.571L442.116 418.147V415.864C447.386 415.5 452.507 413.997 457.105 411.464C458.513 410.688 459.838 409.923 460.9 409.25C461.516 411.892 462.062 413.581 462.062 413.581Z" fill="black"/>
<path id="Vector_49" opacity="0.1" d="M479.661 173.309L487.874 204.699C487.874 204.699 462.648 208.694 457.369 204.699C452.089 200.704 442.116 199.562 442.116 199.562C442.116 199.562 452.675 169.885 458.542 166.461C464.408 163.036 479.661 173.309 479.661 173.309Z" fill="black"/>
<path id="Vector_50" d="M479.661 172.168L487.874 203.557C487.874 203.557 462.648 207.552 457.369 203.557C452.089 199.562 442.116 198.421 442.116 198.421C442.116 198.421 452.675 168.743 458.542 165.319C464.408 161.895 479.661 172.168 479.661 172.168Z" fill="white"/>
<path id="Vector_51" opacity="0.1" d="M521.531 157.614C519.888 159.821 517.798 161.677 515.39 163.069C512.982 164.46 510.307 165.358 507.529 165.707C504.751 166.055 501.93 165.847 499.238 165.095C496.546 164.344 494.04 163.064 491.875 161.336C491.149 159.475 490.601 157.553 490.239 155.594L518.398 151.028C518.398 151.028 521.771 150.109 521.531 157.614Z" fill="black"/>
<path id="Vector_52" d="M525.42 145.344C525.42 150.642 523.257 155.722 519.406 159.469C515.556 163.215 510.333 165.319 504.887 165.319C499.442 165.319 494.219 163.215 490.368 159.469C486.518 155.722 484.355 150.642 484.355 145.344C484.355 145.013 484.355 144.682 484.355 144.351C484.49 139.053 486.783 134.025 490.729 130.372C494.676 126.719 499.952 124.741 505.398 124.872C510.843 125.004 516.012 127.235 519.767 131.074C523.522 134.913 525.556 140.046 525.42 145.344V145.344Z" fill="#DB8B8B"/>
<path id="Vector_53" opacity="0.1" d="M525.42 145.344C525.422 147.185 525.161 149.017 524.646 150.789C523.059 151.125 521.403 150.978 519.906 150.366C517.712 149.527 515.828 148.083 513.722 147.045C507.791 144.123 500.734 144.699 494.163 145.664C490.902 146.143 487.2 146.588 484.636 144.568C484.548 144.5 484.464 144.428 484.384 144.351C484.519 139.053 486.812 134.025 490.759 130.372C494.705 126.719 499.981 124.741 505.427 124.872C510.873 125.004 516.042 127.235 519.796 131.074C523.551 134.913 525.585 140.046 525.449 145.344H525.42Z" fill="black"/>
<path id="Vector_54" opacity="0.05" d="M429.503 206.696C429.503 206.696 444.756 210.691 449.449 220.964C454.142 231.237 466.837 233.115 466.837 233.115" fill="black"/>
<path id="Vector_55" d="M486.994 432.7H451.795V443.544H486.994V432.7Z" fill="#535461"/>
<path id="Vector_56" d="M457.081 412.577C460.231 410.865 462.995 409.153 463.235 408.445C463.235 408.445 471.184 416.606 478.265 419.14C480.646 419.996 482.926 421.098 485.064 422.427C487.869 424.14 491.87 426.154 495.501 426.154C495.501 426.154 503.714 433.003 487.874 434.144C472.035 435.286 435.076 431.291 435.076 431.291L437.422 417.023C444.279 417.414 451.105 415.87 457.081 412.577Z" fill="#FCF8F8"/>
</g>
<g id="Hat">
<path id="hat" d="M470.359 134.368C471.609 138.077 477.61 138.193 480.69 140.925C482.292 142.346 483.037 144.444 484.797 145.71C487.243 147.476 490.775 147.087 493.89 146.665C500.161 145.821 506.896 145.316 512.551 147.875C514.558 148.78 516.359 150.046 518.453 150.785C520.547 151.523 523.146 151.612 524.847 150.302C526.208 149.252 526.707 147.526 527.939 146.371C528.895 145.46 530.227 144.95 531.318 144.15C533.712 142.44 534.744 139.653 535.425 136.988C536.833 131.503 537.237 125.591 534.838 120.388C532.439 115.186 526.666 110.95 520.365 111.222C518.435 111.306 516.552 111.778 514.628 111.978C509.612 112.461 504.655 110.867 499.621 110.595C498.161 110.427 496.68 110.618 495.321 111.15C494.297 111.689 493.413 112.439 492.734 113.343C490.43 116.2 488.852 119.521 488.123 123.048C487.536 125.707 487.507 128.117 484.063 128.527C480.15 129.016 467.713 126.523 470.359 134.368Z" fill="#472727"/>
</g>
</g>
<defs>
<linearGradient id="paint0_linear" x1="629.605" y1="103.118" x2="251.188" y2="485.646" gradientUnits="userSpaceOnUse">
<stop stop-color="#62D2A2" stop-opacity="0.95"/>
<stop offset="0.760417" stop-color="white" stop-opacity="0"/>
</linearGradient>
<linearGradient id="paint1_linear" x1="428.103" y1="315.869" x2="428.103" y2="419.1" gradientUnits="userSpaceOnUse">
<stop offset="0.765625" stop-color="#DC895A"/>
<stop offset="1" stop-color="white" stop-opacity="0"/>
</linearGradient>
<linearGradient id="paint2_linear" x1="497.126" y1="305.362" x2="497.126" y2="358.804" gradientUnits="userSpaceOnUse">
<stop offset="0.765625" stop-color="#DC895A"/>
<stop offset="1" stop-color="white" stop-opacity="0"/>
</linearGradient>
<linearGradient id="paint3_linear" x1="517.785" y1="316.782" x2="517.785" y2="413.616" gradientUnits="userSpaceOnUse">
<stop offset="0.765625" stop-color="#DC895A"/>
<stop offset="1" stop-color="white" stop-opacity="0"/>
</linearGradient>
<linearGradient id="paint4_linear" x1="575.538" y1="287.544" x2="575.538" y2="423.666" gradientUnits="userSpaceOnUse">
<stop offset="0.765625" stop-color="#DC895A"/>
<stop offset="1" stop-color="white" stop-opacity="0"/>
</linearGradient>
<linearGradient id="paint5_linear" x1="411.738" y1="406.43" x2="411.738" y2="436.568" gradientUnits="userSpaceOnUse">
<stop offset="0.765625" stop-color="#DC895A"/>
<stop offset="1" stop-color="white" stop-opacity="0"/>
</linearGradient>
<linearGradient id="paint6_linear" x1="390.074" y1="344.188" x2="390.074" y2="425.949" gradientUnits="userSpaceOnUse">
<stop offset="0.765625" stop-color="#DC895A"/>
<stop offset="1" stop-color="white" stop-opacity="0"/>
</linearGradient>
</defs>
</svg>
